<svg width="135" height="30" viewBox="0 0 135 30" fill="none" xmlns="http://www.w3.org/2000/svg">
<path d="M0.851628 29.5833C0.624527 29.5833 0.420136 29.4861 0.238456 29.2917C0.0794854 29.0972 0 28.8472 0 28.5417V1.45833C0 1.15278 0.0794854 0.902778 0.238456 0.708334C0.420136 0.513889 0.624527 0.416666 0.851628 0.416666H4.01968C4.36033 0.416666 4.61014 0.527778 4.76911 0.75C4.9508 0.972223 5.0757 1.13889 5.14383 1.25L11.4118 15.375L17.7479 1.25C17.7933 1.13889 17.8955 0.972223 18.0545 0.75C18.2362 0.527778 18.4974 0.416666 18.838 0.416666H22.0061C22.2559 0.416666 22.4603 0.513889 22.6192 0.708334C22.7782 0.902778 22.8577 1.15278 22.8577 1.45833V28.5417C22.8577 28.8472 22.7782 29.0972 22.6192 29.2917C22.4603 29.4861 22.2559 29.5833 22.0061 29.5833H18.5314C18.3043 29.5833 18.1113 29.4861 17.9523 29.2917C17.7933 29.0972 17.7139 28.8472 17.7139 28.5417V11.7083L13.3876 21.625C13.274 21.875 13.1264 22.0972 12.9447 22.2917C12.7631 22.4861 12.5246 22.5833 12.2294 22.5833H10.6283C10.3331 22.5833 10.0946 22.4861 9.91294 22.2917C9.73126 22.0972 9.58365 21.875 9.4701 21.625L5.14383 11.7083V28.5417C5.14383 28.8472 5.06435 29.0972 4.90537 29.2917C4.7464 29.4861 4.55337 29.5833 4.32627 29.5833H0.851628Z" fill="#0E0F10"/>
<path d="M30.2613 29.5833C30.0569 29.5833 29.8865 29.5 29.7503 29.3333C29.614 29.1389 29.5459 28.9306 29.5459 28.7083C29.5459 28.5694 29.5572 28.4444 29.5799 28.3333L37.6874 1.54167C37.7556 1.23611 37.8918 0.972223 38.0962 0.75C38.3006 0.527778 38.5845 0.416666 38.9479 0.416666H43.3082C43.6716 0.416666 43.9554 0.527778 44.1598 0.75C44.3642 0.972223 44.5005 1.23611 44.5686 1.54167L52.6761 28.3333C52.6988 28.4444 52.7102 28.5694 52.7102 28.7083C52.7102 28.9306 52.642 29.1389 52.5058 29.3333C52.3695 29.5 52.1992 29.5833 51.9948 29.5833H48.452C48.1114 29.5833 47.8616 29.4861 47.7026 29.2917C47.5436 29.0972 47.4414 28.9167 47.396 28.75L45.9312 24.0833H36.3248L34.86 28.75C34.8146 28.9167 34.7124 29.0972 34.5535 29.2917C34.3945 29.4861 34.1447 29.5833 33.804 29.5833H30.2613ZM37.5853 18.7083H44.6367L41.128 6.70833L37.5853 18.7083Z" fill="#0E0F10"/>
<path d="M60.242 29.5833C59.9922 29.5833 59.7878 29.4861 59.6288 29.2917C59.4699 29.0972 59.3904 28.8472 59.3904 28.5417V1.45833C59.3904 1.15278 59.4699 0.902778 59.6288 0.708334C59.7878 0.513889 59.9922 0.416666 60.242 0.416666H64.0914C64.3412 0.416666 64.5456 0.513889 64.7045 0.708334C64.8635 0.902778 64.943 1.15278 64.943 1.45833V28.5417C64.943 28.8472 64.8635 29.0972 64.7045 29.2917C64.5456 29.4861 64.3412 29.5833 64.0914 29.5833H60.242Z" fill="#0E0F10"/>
<path d="M83.1864 30C81.1198 30 79.3371 29.5833 77.8382 28.75C76.3394 27.9167 75.1698 26.6667 74.3295 25C73.4892 23.3056 73.035 21.1806 72.9669 18.625C72.9442 17.4306 72.9329 16.25 72.9329 15.0833C72.9329 13.8889 72.9442 12.6806 72.9669 11.4583C73.035 8.95833 73.4892 6.86111 74.3295 5.16667C75.1925 3.44445 76.3734 2.15278 77.8723 1.29167C79.3939 0.430556 81.1652 0 83.1864 0C85.1849 0 86.9336 0.430556 88.4325 1.29167C89.954 2.15278 91.1463 3.44445 92.0093 5.16667C92.8723 6.86111 93.3265 8.95833 93.3719 11.4583C93.4173 12.6806 93.44 13.8889 93.44 15.0833C93.44 16.25 93.4173 17.4306 93.3719 18.625C93.3038 21.1806 92.8496 23.3056 92.0093 25C91.169 26.6667 89.9995 27.9167 88.5006 28.75C87.0017 29.5833 85.2304 30 83.1864 30ZM83.1864 24.625C84.5036 24.625 85.5824 24.1389 86.4226 23.1667C87.2856 22.1667 87.7398 20.5833 87.7852 18.4167C87.8307 17.1944 87.8534 16.0556 87.8534 15C87.8534 13.9167 87.8307 12.7778 87.7852 11.5833C87.7625 10.1389 87.5468 8.95833 87.138 8.04167C86.7292 7.125 86.1842 6.45833 85.5029 6.04167C84.8443 5.59722 84.0721 5.375 83.1864 5.375C82.3008 5.375 81.5173 5.59722 80.836 6.04167C80.1547 6.45833 79.6096 7.125 79.2008 8.04167C78.8148 8.95833 78.599 10.1389 78.5536 11.5833C78.5309 12.7778 78.5195 13.9167 78.5195 15C78.5195 16.0556 78.5309 17.1944 78.5536 18.4167C78.6217 20.5833 79.0759 22.1667 79.9162 23.1667C80.7565 24.1389 81.8465 24.625 83.1864 24.625Z" fill="#0E0F10"/>
<path d="M102.267 29.5833C102.017 29.5833 101.813 29.4861 101.654 29.2917C101.495 29.0972 101.416 28.8472 101.416 28.5417V1.45833C101.416 1.15278 101.495 0.902778 101.654 0.708334C101.813 0.513889 102.017 0.416666 102.267 0.416666H105.367C105.708 0.416666 105.958 0.513889 106.117 0.708334C106.275 0.902778 106.378 1.05556 106.423 1.16667L115.518 18.5417V1.45833C115.518 1.15278 115.598 0.902778 115.757 0.708334C115.916 0.513889 116.109 0.416666 116.336 0.416666H119.811C120.06 0.416666 120.265 0.513889 120.424 0.708334C120.583 0.902778 120.662 1.15278 120.662 1.45833V28.5417C120.662 28.8194 120.583 29.0694 120.424 29.2917C120.265 29.4861 120.06 29.5833 119.811 29.5833H116.677C116.336 29.5833 116.086 29.4861 115.927 29.2917C115.791 29.0694 115.689 28.9167 115.621 28.8333L106.559 12V28.5417C106.559 28.8472 106.48 29.0972 106.321 29.2917C106.162 29.4861 105.958 29.5833 105.708 29.5833H102.267Z" fill="#0E0F10"/>
<path d="M130.299 29.5833C130.049 29.5833 129.845 29.4861 129.686 29.2917C129.527 29.0972 129.447 28.8472 129.447 28.5417V1.45833C129.447 1.15278 129.527 0.902778 129.686 0.708334C129.845 0.513889 130.049 0.416666 130.299 0.416666H134.148C134.398 0.416666 134.603 0.513889 134.762 0.708334C134.921 0.902778 135 1.15278 135 1.45833V28.5417C135 28.8472 134.921 29.0972 134.762 29.2917C134.603 29.4861 134.398 29.5833 134.148 29.5833H130.299Z" fill="#0E0F10"/>
<rect x="80.9387" y="9" width="4.90537" height="12" rx="2.45269" fill="#FB5343"/>
</svg>
